<svg xmlns="http://www.w3.org/2000/svg" viewBox="0 0 184.2 50"><linearGradient id="a" gradientUnits="userSpaceOnUse" x1="168.577" y1="34.928" x2="168.577" y2="10.619"><stop offset="0" stop-color="#5250a1"/><stop offset="1" stop-color="#2f368f"/></linearGradient><path d="M161.6 23.3l12.7-6.4c-1.6-1.5-3.6-2.2-6-2.2-2.6 0-4.7.8-6.2 2.5s-2.2 3.7-2 5.9c.1 2.1.9 3.9 2.4 5.4 1.5 1.5 3.5 2.3 6 2.2 2.6 0 4.5-.7 5.8-1.9 1.3-1.2 2.2-3 2.7-5.4l4.7.6c-.1 1.6-.6 3.3-1.7 4.9-1 1.7-2.6 3.1-4.6 4.2-2 1.1-4.5 1.7-7.3 1.8-2.3 0-4.4-.5-6.4-1.6s-3.6-2.5-4.8-4.3c-1.2-1.8-1.8-3.7-1.8-5.8-.1-4.1 1.2-7.2 4-9.4 2.7-2.2 5.8-3.3 9.2-3.3 2.9 0 5.4.6 7.4 1.8 2 1.2 3.7 3.1 5.2 5.5l-17.3 8.7-2-3.2z" fill-rule="evenodd" clip-rule="evenodd" fill="url(#a)"/><linearGradient id="b" gradientUnits="userSpaceOnUse" x1="149.619" y1="34.359" x2="149.619" y2="10.619"><stop offset="0" stop-color="#5250a1"/><stop offset="1" stop-color="#2f368f"/></linearGradient><path d="M143.3 11.1h4.5v2.7c.6-.9 1.5-1.7 2.7-2.3 1.1-.6 2.5-.9 4-.9h1.4v4.1h-1.1c-2.4 0-4.1.8-5.1 2.4-1 1.6-1.6 3.3-1.7 5.1v12.2h-4.7V11.1z" fill-rule="evenodd" clip-rule="evenodd" fill="url(#b)"/><linearGradient id="c" gradientUnits="userSpaceOnUse" x1="129.809" y1="34.848" x2="129.809" y2="11.102"><stop offset="0" stop-color="#5250a1"/><stop offset="1" stop-color="#2f368f"/></linearGradient><path d="M118.9 11.1h4.7v14c.1 1.7.8 3 1.9 4 1.2 1 2.6 1.6 4.2 1.6 1.8 0 3.3-.6 4.4-1.7 1.2-1.2 1.8-2.5 1.9-3.9v-14h4.7v13.8c0 2.9-1.1 5.3-3.2 7.2-2.1 1.9-4.7 2.8-7.9 2.8-3.1-.1-5.6-1-7.7-2.8-2.1-1.7-3.1-4.3-3.1-7.8V11.1z" fill-rule="evenodd" clip-rule="evenodd" fill="url(#c)"/><linearGradient id="d" gradientUnits="userSpaceOnUse" x1="109.934" y1="34.359" x2="109.934" y2="5.193"><stop offset="0" stop-color="#5250a1"/><stop offset="1" stop-color="#2f368f"/></linearGradient><path d="M103 27.1V5.2h4.6v5.9h9.2v4.1h-9.2v12.7c0 .6.3 1.2.9 1.7.6.5 1.4.7 2.5.7h5.8v4.1h-5.9c-2.7 0-4.7-.7-6-2.1-1.2-1.4-1.9-3.2-1.9-5.2z" fill-rule="evenodd" clip-rule="evenodd" fill="url(#d)"/><linearGradient id="e" gradientUnits="userSpaceOnUse" x1="89.872" y1="34.848" x2="89.872" y2="11.102"><stop offset="0" stop-color="#5250a1"/><stop offset="1" stop-color="#2f368f"/></linearGradient><path d="M78.9 11.1h4.7v14c.1 1.7.7 3 2 4 1.2 1 2.6 1.6 4.2 1.6 1.8 0 3.3-.6 4.4-1.7 1.2-1.2 1.8-2.5 1.9-3.9v-14h4.7v13.8c0 2.9-1.1 5.3-3.2 7.2-2.1 1.9-4.7 2.8-7.9 2.8-3.1-.1-5.6-1-7.7-2.8-2.1-1.7-3.1-4.3-3.1-7.8V11.1z" fill-rule="evenodd" clip-rule="evenodd" fill="url(#e)"/><linearGradient id="f" gradientUnits="userSpaceOnUse" x1="68.024" y1="34.359" x2="68.024" y2=".391"><stop offset="0" stop-color="#5250a1"/><stop offset="1" stop-color="#2f368f"/></linearGradient><path d="M76.1 34.4V8.9c0-2.1-.4-3.7-1.4-5-.9-1.2-2-2.1-3.2-2.7C70.3.7 69 .3 67.7.3h-7.8v4.1h6.5c3 0 5 1.3 5 3.8v2.9H60.6v4.1h10.8v19.2h4.7z" fill-rule="evenodd" clip-rule="evenodd" fill="url(#f)"/><linearGradient id="g" gradientUnits="userSpaceOnUse" x1="36.005" y1="34.359" x2="36.005" y2="10.619"><stop offset="0" stop-color="#f9a533"/><stop offset="1" stop-color="#f48020"/></linearGradient><path d="M29.7 11.1h4.5v2.7c.6-.9 1.5-1.7 2.7-2.3 1.1-.6 2.5-.9 4-.9h1.4v4.1h-1.1c-2.4 0-4.1.8-5.1 2.4-1 1.6-1.6 3.3-1.6 5.1v12.2h-4.7V11.1z" fill-rule="evenodd" clip-rule="evenodd" fill="url(#g)"/><linearGradient id="h" gradientUnits="userSpaceOnUse" x1="13.194" y1="34.846" x2="13.194" y2="10.619"><stop offset="0" stop-color="#f9a533"/><stop offset="1" stop-color="#f48020"/></linearGradient><path d="M21.5 34.4V20.9c-.1-1.2-.4-2.3-1.1-3.2-.7-.9-1.6-1.7-2.9-2.2-1.3-.6-2.7-.8-4.4-.8-1.1-.1-2.3.2-3.6.7-1.3.5-2.4 1.4-3.3 2.6-.9 1.2-1.4 2.8-1.4 4.6 0 2.5.8 4.5 2.5 6s3.6 2.3 5.9 2.3c2.5 0 4.6-1.1 6.6-3.2v5.1c-1.5.8-2.6 1.4-3.4 1.7-.8.3-2 .5-3.6.5-3.3.1-6.2-1.1-8.8-3.4-2.6-2.3-3.9-5.3-3.9-9 0-3.3 1.2-6.2 3.5-8.5s5.6-3.4 9.9-3.4c2.6 0 4.9.5 6.9 1.5.4.2.7.4 1.1.6v-1.6c1.3 0 2.6 0 4.8-.1v23.4h-4.8z" fill-rule="evenodd" clip-rule="evenodd" fill="url(#h)"/><linearGradient id="i" gradientUnits="userSpaceOnUse" x1="53.047" y1="34.359" x2="53.047" y2=".394"><stop offset="0" stop-color="#f9a533"/><stop offset="1" stop-color="#f48020"/></linearGradient><path d="M45 .4v25.4c0 2.1.4 3.7 1.4 5 .9 1.3 2 2.1 3.2 2.7 1.2.5 2.5.9 3.8.9h7.8v-4.1h-6.5c-3 0-5-1.2-5-3.8v-2.9h10.8v-4.1H49.7V.4H45z" fill-rule="evenodd" clip-rule="evenodd" fill="url(#i)"/><path d="M83.4 40v7.7H71.6V40h1.8v6.3h3.2V40h1.8v6.3h3.3V40zm9.5 7.7h-2.4l-3.4-3.4H87v3.4h-1.8V40H87v2.9h.1L90 40h2.3l-3.7 3.6zm7.4-5.7c-.1-.5-.4-.9-.7-1.3-.3-.3-.7-.5-1.2-.6-.5-.1-1.1-.2-1.8-.2-1 0-1.7.1-2.2.3-.6.2-1 .7-1.2 1.3-.2.6-.3 1.4-.3 2.4 0 .8.1 1.4.2 1.9s.4.9.7 1.3c.3.3.7.5 1.2.7.5.1 1.1.2 1.8.2s1.3-.1 1.8-.2.9-.3 1.2-.7c.3-.3.5-.7.7-1.3.1-.5.2-1.1.2-1.9-.2-.8-.3-1.4-.4-1.9zm-3.7 4.4c-.6 0-1-.1-1.3-.2-.2-.1-.4-.3-.5-.6-.1-.4-.2-.9-.2-1.7 0-.8.1-1.4.2-1.7.1-.3.3-.5.5-.6.3-.1.7-.2 1.3-.2.5 0 .8 0 1.1.1.2.1.4.2.5.3.1.2.2.4.3.7.1.3.1.8.1 1.4 0 .6 0 1.1-.1 1.4-.1.3-.2.6-.3.7-.1.2-.3.3-.5.3-.3.1-.6.1-1.1.1zm11.9-6.4v7.7h-1.8v-6.3h-2.9v4c0 1.5-.8 2.3-2.2 2.3h-.9v-1.4h.5c.5 0 .7-.1.7-.1s.1-.2.1-.8V40h6.5zm20.9 6.3V40h-6.3v3.5c0 .5 0 .9-.1 1.2 0 .3-.1.6-.2.9-.1.2-.2.5-.4.7h-.9v3.5h1.7v-2h5.3v2h1.7v-3.5h-.8zm-1.8-4.9v4.9h-3.2c.3-.7.5-1.5.5-2.6v-2.3h2.7zm10.7-1.4v7.7h-1.7v-5.2l-3.7 5.2h-2V40h1.8v5.3l3.7-5.3zm8.6 5.4c0 .6-.1 1.1-.3 1.5-.2.4-.6.7-1.2.8-.5.2-1.2.2-2 .2-1 0-1.7-.1-2.2-.2-.6-.2-1-.4-1.2-.8-.2-.4-.3-.9-.3-1.5V45h1.7v.3c0 .5.1.7.1.8.1.1.2.2.4.3.3.1.7.1 1.4.1.6 0 1.1 0 1.3-.1.2-.1.4-.1.4-.3.1-.1.1-.3.1-.7 0-.4-.1-.9-1.1-.9h-2V43h2.1c.7 0 1-.3 1-.9 0-.3-.1-.5-.3-.6-.1-.1-.5-.2-1.4-.2-.5 0-.9 0-1.2.1-.2 0-.4.1-.5.2-.1.1-.1.3-.1.6v.4h-1.7v-.4c0-.5.1-.8.2-1.1.2-.3.4-.5.7-.7.3-.2.7-.3 1.1-.3.4-.1.9-.1 1.4-.1.8 0 1.5.1 2 .2.5.2.9.4 1.2.7.2.3.4.7.4 1.2 0 .4-.1.9-.4 1.2-.1.2-.3.3-.4.4.7.4.8 1.1.8 1.7zm17.5-5.4v7.7h-1.8v-5.2l-3.7 5.2H157V40h1.7v5.3l3.7-5.3zm-1.7-1.9v.3c0 .4-.1.7-.2 1-.2.3-.4.4-.7.5-.3.1-.7.1-1.2.1s-.9 0-1.2-.1c-.3-.1-.6-.3-.7-.5-.1-.2-.2-.6-.2-1v-.3h1.3v.3c0 .2 0 .3.1.3 0 0 0 .1.2.1h1.2c.1 0 .2-.1.2-.1s.1-.1.1-.3v-.3h1.1zm10.4 1.9v7.7h-1.8v-3.3h-3.7v3.3h-1.7V40h1.7v2.9h3.7V40zm-57.7 0v.5c-.2-.1-.3-.1-.5-.2-.5-.1-1-.2-1.8-.2-.9 0-1.7.1-2.2.3-.6.2-1 .6-1.2 1.2-.2.5-.3 1.3-.3 2.3 0 .7.1 1.3.2 1.8s.3.9.7 1.2c.3.3.7.5 1.2.6.5.1 1 .2 1.7.2s1.3-.1 1.7-.2c.2 0 .4-.1.5-.2v.5h1.7V40h-1.7zm-2.3 6.3c-.6 0-1-.1-1.3-.2-.2-.1-.4-.3-.5-.6-.1-.4-.2-.9-.2-1.6 0-.7.1-1.3.2-1.6.1-.3.3-.5.5-.6.3-.1.7-.2 1.3-.2.5 0 .8 0 1.1.1.2.1.4.2.5.3.1.2.2.4.3.7.1.3.1.8.1 1.3 0 .6 0 1-.1 1.4-.1.3-.2.5-.3.7-.1.1-.3.2-.5.3h-1.1zm40.7-6.2v.5c-.2-.1-.3-.1-.5-.2-.5-.1-1-.2-1.8-.2-.9 0-1.7.1-2.2.3-.6.2-1 .6-1.2 1.2-.2.5-.3 1.3-.3 2.3 0 .7.1 1.3.2 1.8s.3.9.6 1.2.7.5 1.2.6c.5.1 1 .2 1.7.2s1.3-.1 1.7-.2c.2 0 .4-.1.5-.2v.6h1.7v-7.9h-1.6zm-2.3 6.4c-.6 0-1-.1-1.3-.2-.2-.1-.4-.3-.5-.6-.1-.3-.2-.9-.2-1.6 0-.7.1-1.3.2-1.6.1-.3.3-.5.5-.6.3-.1.7-.2 1.3-.2.5 0 .8 0 1.1.1.2.1.4.2.5.3.1.2.2.4.3.7.1.3.1.8.1 1.3v.8c0 .2 0 .4-.1.6-.1.3-.2.5-.3.7-.1.1-.3.2-.5.3-.3-.1-.6 0-1.1 0zm28.9-6.5v.5c-.2-.1-.3-.1-.5-.2-.5-.1-1-.2-1.8-.2-.9 0-1.7.1-2.2.3-.6.2-1 .6-1.2 1.2-.2.5-.3 1.3-.3 2.3 0 .7.1 1.3.2 1.8s.3.9.7 1.2c.3.3.7.5 1.2.6.5.1 1 .2 1.7.2s1.3-.1 1.7-.2c.2 0 .4-.1.5-.2v.5h1.7V40h-1.7zm-2.3 6.3c-.6 0-1-.1-1.3-.2-.2-.1-.4-.3-.5-.6-.1-.3-.2-.9-.2-1.6 0-.7.1-1.3.2-1.6.1-.3.3-.5.5-.6.3-.1.7-.2 1.3-.2.5 0 .8 0 1.1.1.2.1.4.2.5.3.1.2.2.4.3.7.1.3.1.8.1 1.3 0 .6 0 1-.1 1.4-.1.3-.2.5-.3.7-.1.1-.3.2-.5.3h-1.1z" fill="#3b4199"/><path d="M177.7.3c.8 0 1.5.2 2.2.6.7.4 1.2.9 1.6 1.6.4.7.6 1.4.6 2.2s-.1 1.6-.5 2.3c-.4.7-.9 1.2-1.6 1.6-.7.4-1.4.6-2.2.6-.6 0-1.2-.1-1.7-.3-.5-.2-1-.6-1.4-1-.4-.4-.7-.9-1-1.4-.2-.5-.3-1.1-.3-1.7 0-.8.2-1.5.6-2.2.4-.7.9-1.2 1.6-1.6.6-.5 1.3-.7 2.1-.7zm0 .7c-.7 0-1.3.2-1.9.5-.6.3-1 .8-1.3 1.4-.3.6-.5 1.2-.5 1.9s.2 1.3.5 1.9c.3.6.8 1 1.3 1.4.6.3 1.2.5 1.9.5.5 0 1-.1 1.4-.3.4-.2.8-.5 1.2-.8.3-.3.6-.8.8-1.2.2-.5.3-.9.3-1.4 0-.7-.2-1.3-.5-1.9-.3-.6-.8-1-1.3-1.4-.6-.4-1.2-.6-1.9-.6zm-1.9 6.2V2.3h2.4c.6 0 1 .1 1.2.4.3.2.4.6.4 1.2 0 .3 0 .5-.1.7 0 .2-.1.3-.3.4-.1.1-.3.2-.6.2.6 0 .8.4.8 1v1.1h-1v-1c0-.4-.3-.7-.7-.7h-1.3v1.6h-.8zm1-2.4h1.3c.3 0 .5-.1.6-.2.1-.1.2-.3.2-.6s-.1-.5-.2-.6c-.1-.1-.3-.2-.6-.2h-1.4v1.6z" fill="#2e398f"/></svg>